<?xml version="1.0" encoding="UTF-8"?>
<svg xmlns="http://www.w3.org/2000/svg" xmlns:xlink="http://www.w3.org/1999/xlink" width="830.4pt" height="337.7pt" viewBox="0 0 830.4 337.7" version="1.1">
<defs>
<clipPath id="clip1">
  <path d="M 746 40 L 830.398438 40 L 830.398438 125 L 746 125 Z M 746 40 "/>
</clipPath>
<clipPath id="clip2">
  <path d="M 745 123 L 830.398438 123 L 830.398438 208 L 745 208 Z M 745 123 "/>
</clipPath>
<clipPath id="clip3">
  <path d="M 745 206 L 830.398438 206 L 830.398438 290 L 745 290 Z M 745 206 "/>
</clipPath>
<clipPath id="clip4">
  <path d="M 746 40 L 830.398438 40 L 830.398438 124 L 746 124 Z M 746 40 "/>
</clipPath>
<clipPath id="clip5">
  <path d="M 746 123 L 830.398438 123 L 830.398438 207 L 746 207 Z M 746 123 "/>
</clipPath>
<clipPath id="clip6">
  <path d="M 746 205 L 830.398438 205 L 830.398438 290 L 746 290 Z M 746 205 "/>
</clipPath>
</defs>
<g id="surface1">
<path style=" stroke:none;fill-rule:evenodd;fill:rgb(94.139099%,18.821716%,27.830505%);fill-opacity:1;" d="M 0.5625 40.609375 L 82.816406 40.609375 L 0.5625 124.113281 Z M 0.5625 40.609375 "/>
<path style=" stroke:none;fill-rule:evenodd;fill:rgb(15.696716%,29.417419%,54.492188%);fill-opacity:1;" d="M 0.5625 123.527344 L 82.96875 123.527344 L 0.5625 206.824219 Z M 0.5625 123.527344 "/>
<path style=" stroke:none;fill-rule:evenodd;fill:rgb(70.117188%,17.651367%,21.972656%);fill-opacity:1;" d="M 0.5625 206.441406 L 82.816406 206.441406 L 0.5625 289.359375 Z M 0.5625 206.441406 "/>
<path style=" stroke:none;fill-rule:evenodd;fill:rgb(56.443787%,15.281677%,20.776367%);fill-opacity:1;" d="M 246.796875 40.609375 L 329.578125 40.609375 L 247.382813 124.054688 Z M 246.796875 40.609375 "/>
<path style=" stroke:none;fill-rule:evenodd;fill:rgb(56.443787%,15.281677%,20.776367%);fill-opacity:1;" d="M 246.148438 123.527344 L 329.578125 123.527344 L 247.324219 206.441406 Z M 246.148438 123.527344 "/>
<path style=" stroke:none;fill-rule:evenodd;fill:rgb(94.139099%,18.821716%,27.830505%);fill-opacity:1;" d="M 246.914063 206.441406 L 329.578125 206.441406 L 247.324219 289.359375 Z M 246.914063 206.441406 "/>
<path style=" stroke:none;fill-rule:evenodd;fill:rgb(56.443787%,15.281677%,20.776367%);fill-opacity:1;" d="M 577.523438 40.609375 L 663.425781 40.609375 L 578.167969 124.171875 Z M 577.523438 40.609375 "/>
<path style=" stroke:none;fill-rule:evenodd;fill:rgb(94.139099%,18.821716%,27.830505%);fill-opacity:1;" d="M 576.757813 123.527344 L 662.25 123.527344 L 578.167969 206.441406 Z M 576.757813 123.527344 "/>
<path style=" stroke:none;fill-rule:evenodd;fill:rgb(94.139099%,18.821716%,27.830505%);fill-opacity:1;" d="M 577.699219 206.441406 L 662.25 206.441406 L 578.167969 289.359375 Z M 577.699219 206.441406 "/>
<path style=" stroke:none;fill-rule:evenodd;fill:rgb(15.696716%,29.417419%,54.492188%);fill-opacity:1;" d="M 82.785156 40.609375 L 165.128906 40.609375 L 82.65625 124.90625 Z M 82.785156 40.609375 "/>
<path style=" stroke:none;fill-rule:evenodd;fill:rgb(96.09375%,17.651367%,27.830505%);fill-opacity:1;" d="M 82.65625 123.527344 L 165.070313 123.527344 L 82.816406 206.441406 Z M 82.65625 123.527344 "/>
<path style=" stroke:none;fill-rule:evenodd;fill:rgb(94.139099%,18.821716%,27.830505%);fill-opacity:1;" d="M 82.28125 206.441406 L 165.070313 206.441406 L 82.816406 289.359375 Z M 82.28125 206.441406 "/>
<path style=" stroke:none;fill-rule:evenodd;fill:rgb(15.696716%,29.417419%,54.492188%);fill-opacity:1;" d="M 329.578125 40.609375 L 411.964844 40.609375 L 329.578125 124.113281 Z M 329.578125 40.609375 "/>
<path style=" stroke:none;fill-rule:evenodd;fill:rgb(94.139099%,18.821716%,27.830505%);fill-opacity:1;" d="M 328.757813 123.527344 L 411.832031 123.527344 L 329.578125 206.441406 Z M 328.757813 123.527344 "/>
<path style=" stroke:none;fill-rule:evenodd;fill:rgb(94.139099%,18.821716%,27.830505%);fill-opacity:1;" d="M 329.375 206.441406 L 411.832031 206.441406 L 329.578125 289.359375 Z M 329.375 206.441406 "/>
<path style=" stroke:none;fill-rule:evenodd;fill:rgb(94.139099%,18.821716%,27.830505%);fill-opacity:1;" d="M 661.074219 40.609375 L 746.332031 40.609375 L 662.253906 124.054688 Z M 661.074219 40.609375 "/>
<path style=" stroke:none;fill-rule:evenodd;fill:rgb(70.117188%,17.651367%,21.972656%);fill-opacity:1;" d="M 660.839844 123.527344 L 746.332031 123.527344 L 662.25 206.441406 Z M 660.839844 123.527344 "/>
<path style=" stroke:none;fill-rule:evenodd;fill:rgb(15.696716%,29.417419%,54.492188%);fill-opacity:1;" d="M 661.3125 206.441406 L 746.332031 206.441406 L 662.25 289.359375 Z M 661.3125 206.441406 "/>
<path style=" stroke:none;fill-rule:evenodd;fill:rgb(94.139099%,18.821716%,27.830505%);fill-opacity:1;" d="M 165.070313 40.609375 L 247.53125 40.609375 L 165.070313 124.347656 Z M 165.070313 40.609375 "/>
<path style=" stroke:none;fill-rule:evenodd;fill:rgb(70.117188%,17.651367%,21.972656%);fill-opacity:1;" d="M 164.128906 123.527344 L 247.324219 123.527344 L 165.070313 206.441406 Z M 164.128906 123.527344 "/>
<path style=" stroke:none;fill-rule:evenodd;fill:rgb(15.696716%,29.417419%,54.492188%);fill-opacity:1;" d="M 164.203125 206.441406 L 247.324219 206.441406 L 165.070313 289.359375 Z M 164.203125 206.441406 "/>
<path style=" stroke:none;fill-rule:evenodd;fill:rgb(15.696716%,29.417419%,54.492188%);fill-opacity:1;" d="M 493.109375 40.609375 L 578.167969 40.609375 L 494.085938 123.527344 Z M 493.109375 40.609375 "/>
<path style=" stroke:none;fill-rule:evenodd;fill:rgb(70.117188%,17.651367%,21.972656%);fill-opacity:1;" d="M 492.441406 123.527344 L 578.167969 123.527344 L 494.085938 206.441406 Z M 492.441406 123.527344 "/>
<path style=" stroke:none;fill-rule:evenodd;fill:rgb(70.117188%,17.651367%,21.972656%);fill-opacity:1;" d="M 493.675781 206.441406 L 578.167969 206.441406 L 494.085938 289.359375 Z M 493.675781 206.441406 "/>
<path style=" stroke:none;fill-rule:evenodd;fill:rgb(94.139099%,18.821716%,27.830505%);fill-opacity:1;" d="M 411.832031 40.609375 L 494.085938 40.609375 L 411.371094 124.703125 Z M 411.832031 40.609375 "/>
<path style=" stroke:none;fill-rule:evenodd;fill:rgb(70.117188%,17.651367%,21.972656%);fill-opacity:1;" d="M 411.363281 123.527344 L 494.085938 123.527344 L 411.832031 206.441406 Z M 411.363281 123.527344 "/>
<path style=" stroke:none;fill-rule:evenodd;fill:rgb(94.139099%,18.821716%,27.830505%);fill-opacity:1;" d="M 411.304688 206.441406 L 494.085938 206.441406 L 411.832031 289.359375 Z M 411.304688 206.441406 "/>
<g clip-path="url(#clip1)" clip-rule="nonzero">
<path style=" stroke:none;fill-rule:evenodd;fill:rgb(94.139099%,18.821716%,27.830505%);fill-opacity:1;" d="M 746.332031 40.609375 L 830.414063 40.609375 L 746.332031 124.585938 Z M 746.332031 40.609375 "/>
</g>
<g clip-path="url(#clip2)" clip-rule="nonzero">
<path style=" stroke:none;fill-rule:evenodd;fill:rgb(94.139099%,18.821716%,27.830505%);fill-opacity:1;" d="M 745.039063 123.292969 L 830.414063 123.527344 L 746.335938 207.03125 Z M 745.039063 123.292969 "/>
</g>
<g clip-path="url(#clip3)" clip-rule="nonzero">
<path style=" stroke:none;fill-rule:evenodd;fill:rgb(15.696716%,29.417419%,54.492188%);fill-opacity:1;" d="M 745.335938 206.441406 L 830.414063 206.441406 L 746.332031 289.359375 Z M 745.335938 206.441406 "/>
</g>
<path style=" stroke:none;fill-rule:evenodd;fill:rgb(70.117188%,17.651367%,21.972656%);fill-opacity:1;" d="M 82.816406 40.609375 L 82.75 123.527344 L 0.5625 123.527344 Z M 82.816406 40.609375 "/>
<path style=" stroke:none;fill-rule:evenodd;fill:rgb(56.443787%,15.281677%,20.776367%);fill-opacity:1;" d="M 82.816406 123.527344 L 82.816406 206.660156 L 0.5625 206.441406 Z M 82.816406 123.527344 "/>
<path style=" stroke:none;fill-rule:evenodd;fill:rgb(56.443787%,15.281677%,20.776367%);fill-opacity:1;" d="M 82.816406 206.375 L 82.816406 289.359375 L 0.5625 289.359375 Z M 82.816406 206.375 "/>
<path style=" stroke:none;fill-rule:evenodd;fill:rgb(70.117188%,17.651367%,21.972656%);fill-opacity:1;" d="M 329.578125 40.609375 L 329.578125 124.464844 L 247.324219 123.527344 Z M 329.578125 40.609375 "/>
<path style=" stroke:none;fill-rule:evenodd;fill:rgb(94.139099%,18.821716%,27.830505%);fill-opacity:1;" d="M 329.578125 123.527344 L 329.902344 206.734375 L 247.324219 206.441406 Z M 329.578125 123.527344 "/>
<path style=" stroke:none;fill-rule:evenodd;fill:rgb(15.696716%,29.417419%,54.492188%);fill-opacity:1;" d="M 329.578125 206.441406 L 329.578125 289.359375 L 247.324219 289.359375 Z M 329.578125 206.441406 "/>
<path style=" stroke:none;fill-rule:evenodd;fill:rgb(70.117188%,17.651367%,21.972656%);fill-opacity:1;" d="M 662.25 40.609375 L 662.25 123.527344 L 578.167969 123.527344 Z M 662.25 40.609375 "/>
<path style=" stroke:none;fill-rule:evenodd;fill:rgb(70.117188%,17.651367%,21.972656%);fill-opacity:1;" d="M 662.25 122.703125 L 662.457031 206.617188 L 578.167969 206.441406 Z M 662.25 122.703125 "/>
<path style=" stroke:none;fill-rule:evenodd;fill:rgb(15.696716%,29.417419%,54.492188%);fill-opacity:1;" d="M 662.230469 205.148438 L 663.265625 289.359375 L 578.167969 289.359375 Z M 662.230469 205.148438 "/>
<path style=" stroke:none;fill-rule:evenodd;fill:rgb(70.117188%,17.651367%,21.972656%);fill-opacity:1;" d="M 165.070313 40.609375 L 165.136719 123.527344 L 82.816406 123.527344 Z M 165.070313 40.609375 "/>
<path style=" stroke:none;fill-rule:evenodd;fill:rgb(70.117188%,17.651367%,21.972656%);fill-opacity:1;" d="M 165.070313 123.527344 L 165.105469 206.441406 L 82.816406 206.441406 Z M 165.070313 123.527344 "/>
<path style=" stroke:none;fill-rule:evenodd;fill:rgb(15.696716%,29.417419%,54.492188%);fill-opacity:1;" d="M 165.070313 206.28125 L 165.46875 289.359375 L 82.816406 289.359375 Z M 165.070313 206.28125 "/>
<path style=" stroke:none;fill-rule:evenodd;fill:rgb(56.443787%,15.281677%,20.776367%);fill-opacity:1;" d="M 411.832031 40.609375 L 412.539063 123.878906 L 329.578125 123.527344 Z M 411.832031 40.609375 "/>
<path style=" stroke:none;fill-rule:evenodd;fill:rgb(15.696716%,29.417419%,54.492188%);fill-opacity:1;" d="M 411.832031 123.527344 L 411.832031 206.441406 L 329.578125 206.441406 Z M 411.832031 123.527344 "/>
<path style=" stroke:none;fill-rule:evenodd;fill:rgb(56.443787%,15.281677%,20.776367%);fill-opacity:1;" d="M 411.832031 206.441406 L 411.832031 289.359375 L 329.578125 289.359375 Z M 411.832031 206.441406 "/>
<path style=" stroke:none;fill-rule:evenodd;fill:rgb(15.696716%,29.417419%,54.492188%);fill-opacity:1;" d="M 746.332031 40.609375 L 746.332031 124.113281 L 662.25 123.527344 Z M 746.332031 40.609375 "/>
<path style=" stroke:none;fill-rule:evenodd;fill:rgb(94.139099%,18.821716%,27.830505%);fill-opacity:1;" d="M 746.332031 122.703125 L 746.332031 206.441406 L 662.25 206.441406 Z M 746.332031 122.703125 "/>
<path style=" stroke:none;fill-rule:evenodd;fill:rgb(56.443787%,15.281677%,20.776367%);fill-opacity:1;" d="M 746.332031 205.796875 L 746.417969 289.359375 L 662.117188 289.359375 Z M 746.332031 205.796875 "/>
<path style=" stroke:none;fill-rule:evenodd;fill:rgb(15.696716%,29.417419%,54.492188%);fill-opacity:1;" d="M 247.324219 40.609375 L 247.898438 123.53125 L 165.070313 123.527344 Z M 247.324219 40.609375 "/>
<path style=" stroke:none;fill-rule:evenodd;fill:rgb(94.139099%,18.821716%,27.830505%);fill-opacity:1;" d="M 247.375 123.472656 L 248.441406 206.441406 L 164.910156 206.441406 Z M 247.375 123.472656 "/>
<path style=" stroke:none;fill-rule:evenodd;fill:rgb(94.139099%,18.821716%,27.830505%);fill-opacity:1;" d="M 247.324219 206.441406 L 247.441406 289.359375 L 165.070313 289.359375 Z M 247.324219 206.441406 "/>
<path style=" stroke:none;fill-rule:evenodd;fill:rgb(94.139099%,18.821716%,27.830505%);fill-opacity:1;" d="M 578.167969 40.609375 L 578.167969 123.527344 L 494.085938 123.527344 Z M 578.167969 40.609375 "/>
<path style=" stroke:none;fill-rule:evenodd;fill:rgb(94.139099%,18.821716%,27.830505%);fill-opacity:1;" d="M 578.167969 123.527344 L 578.171875 206.914063 L 494.085938 206.441406 Z M 578.167969 123.527344 "/>
<path style=" stroke:none;fill-rule:evenodd;fill:rgb(56.443787%,15.281677%,20.776367%);fill-opacity:1;" d="M 578.167969 206.03125 L 578.285156 289.359375 L 494.085938 289.359375 Z M 578.167969 206.03125 "/>
<path style=" stroke:none;fill-rule:evenodd;fill:rgb(15.696716%,29.417419%,54.492188%);fill-opacity:1;" d="M 494.085938 40.609375 L 495.496094 123.527344 L 411.832031 123.527344 Z M 494.085938 40.609375 "/>
<path style=" stroke:none;fill-rule:evenodd;fill:rgb(70.117188%,17.651367%,21.972656%);fill-opacity:1;" d="M 494.085938 123.527344 L 494.085938 206.441406 L 411.304688 206.441406 Z M 494.085938 123.527344 "/>
<path style=" stroke:none;fill-rule:evenodd;fill:rgb(15.696716%,29.417419%,54.492188%);fill-opacity:1;" d="M 494.085938 206.441406 L 494.160156 289.359375 L 411.832031 289.359375 Z M 494.085938 206.441406 "/>
<g clip-path="url(#clip4)" clip-rule="nonzero">
<path style=" stroke:none;fill-rule:evenodd;fill:rgb(70.117188%,17.651367%,21.972656%);fill-opacity:1;" d="M 830.414063 40.609375 L 830.414063 123.527344 L 746.332031 123.527344 Z M 830.414063 40.609375 "/>
</g>
<g clip-path="url(#clip5)" clip-rule="nonzero">
<path style=" stroke:none;fill-rule:evenodd;fill:rgb(94.139099%,18.821716%,27.830505%);fill-opacity:1;" d="M 830.414063 123.261719 L 830.414063 206.441406 L 746.332031 206.441406 Z M 830.414063 123.261719 "/>
</g>
<g clip-path="url(#clip6)" clip-rule="nonzero">
<path style=" stroke:none;fill-rule:evenodd;fill:rgb(56.443787%,15.281677%,20.776367%);fill-opacity:1;" d="M 830.414063 205.621094 L 830.355469 289.121094 L 746.070313 289.359375 Z M 830.414063 205.621094 "/>
</g>
<path style=" stroke:none;fill-rule:evenodd;fill:rgb(100%,100%,100%);fill-opacity:1;" d="M 691.039063 202.882813 L 707.023438 182.667969 C 727.5625 196.167969 754.253906 200.835938 755.449219 189.015625 C 757.144531 172.371094 694.535156 183.4375 696.0625 140.296875 C 696.011719 120.816406 715.808594 107.351563 739.464844 107.441406 C 756.804688 107.664063 770.375 113.917969 783.660156 122.019531 L 768.613281 143.410156 C 750.03125 132.71875 729.949219 129.097656 727.589844 137.554688 C 723.125 156.457031 790.148438 146.621094 786.597656 185.78125 C 784.21875 212.03125 771.28125 219.183594 742.050781 220.75 C 723.25 221.757813 706.691406 214.550781 691.039063 202.882813 Z M 691.039063 202.882813 "/>
<path style=" stroke:none;fill-rule:evenodd;fill:rgb(100%,100%,100%);fill-opacity:1;" d="M 119.96875 108.363281 L 167.457031 218.847656 L 134.074219 218.847656 L 126.550781 199.808594 L 84.503906 199.808594 L 76.953125 218.847656 L 45.449219 218.847656 L 91.527344 108.363281 Z M 119.96875 108.363281 "/>
<path style=" stroke:none;fill-rule:evenodd;fill:rgb(96.09375%,17.651367%,27.830505%);fill-opacity:1;" d="M 93.640625 175.714844 L 117.5 175.714844 L 105.746094 145.742188 Z M 93.640625 175.714844 "/>
<path style=" stroke:none;fill-rule:evenodd;fill:rgb(100%,100%,100%);fill-opacity:1;" d="M 327.429688 108.363281 L 374.914063 218.847656 L 341.535156 218.847656 L 334.011719 199.808594 L 291.964844 199.808594 L 284.410156 218.847656 L 252.910156 218.847656 L 298.984375 108.363281 Z M 327.429688 108.363281 "/>
<path style=" stroke:none;fill-rule:evenodd;fill:rgb(94.139099%,18.821716%,27.830505%);fill-opacity:1;" d="M 301.101563 175.714844 L 324.960938 175.714844 L 313.207031 145.742188 Z M 301.101563 175.714844 "/>
<path style=" stroke:none;fill-rule:evenodd;fill:rgb(100%,100%,100%);fill-opacity:1;" d="M 648.835938 108.363281 L 696.324219 218.847656 L 662.941406 218.847656 L 655.421875 199.808594 L 613.371094 199.808594 L 605.820313 218.847656 L 574.320313 218.847656 L 620.394531 108.363281 Z M 648.835938 108.363281 "/>
<path style=" stroke:none;fill-rule:evenodd;fill:rgb(70.117188%,17.651367%,21.972656%);fill-opacity:1;" d="M 622.507813 175.714844 L 646.367188 175.714844 L 634.613281 145.742188 Z M 622.507813 175.714844 "/>
<path style=" stroke:none;fill-rule:evenodd;fill:rgb(100%,100%,100%);fill-opacity:1;" d="M 168.277344 109.773438 L 168.277344 218.847656 L 251.375 218.847656 L 251.375 192.640625 L 198.363281 192.640625 L 198.363281 109.773438 Z M 168.277344 109.773438 "/>
<path style=" stroke:none;fill-rule:evenodd;fill:rgb(100%,100%,100%);fill-opacity:1;" d="M 464.472656 123.878906 L 446.839844 145.273438 C 426.632813 127.5 393.824219 133.75 392.773438 163.84375 C 391.773438 192.394531 420.140625 201.800781 440.023438 190.40625 L 440.023438 178.652344 L 418.394531 178.246094 L 418.394531 155.144531 L 468.644531 155.144531 L 468.644531 204.980469 C 433.390625 234.097656 363.453125 227.113281 361.273438 163.84375 C 366.480469 98.660156 438.886719 97.902344 464.472656 123.878906 Z M 464.472656 123.878906 "/>
<path style=" stroke:none;fill-rule:evenodd;fill:rgb(100%,100%,100%);fill-opacity:1;" d="M 531.503906 107.46875 C 564.203125 107.46875 590.707031 132.957031 590.707031 164.394531 C 590.707031 195.832031 564.203125 221.320313 531.503906 221.320313 C 498.808594 221.320313 472.300781 195.832031 472.300781 164.394531 C 472.300781 132.957031 498.808594 107.46875 531.503906 107.46875 Z M 531.503906 107.46875 "/>
<path style=" stroke:none;fill-rule:evenodd;fill:rgb(70.117188%,17.651367%,21.972656%);fill-opacity:1;" d="M 531.453125 135.179688 C 546.757813 135.179688 559.164063 148.308594 559.164063 164.503906 C 559.164063 180.703125 546.757813 193.832031 531.453125 193.832031 C 516.148438 193.832031 503.742188 180.703125 503.742188 164.503906 C 503.742188 148.308594 516.148438 135.179688 531.453125 135.179688 Z M 531.453125 135.179688 "/>
<path style=" stroke:none;fill-rule:evenodd;fill:rgb(70.117188%,17.651367%,21.972656%);fill-opacity:1;" d="M 116.285156 172.617188 L 117.5 175.714844 L 113.226563 175.714844 Z M 116.285156 172.617188 "/>
<path style=" stroke:none;fill-rule:evenodd;fill:rgb(94.139099%,18.821716%,27.830505%);fill-opacity:1;" d="M 553.960938 147.398438 C 540.554688 160.617188 527.148438 173.839844 513.742188 187.058594 C 525.625 197.792969 544.539063 195.765625 554.175781 181.289063 C 561.785156 168.734375 560.019531 156.476563 553.960938 147.398438 Z M 553.960938 147.398438 "/>
<path style=" stroke:none;fill-rule:evenodd;fill:rgb(94.139099%,18.821716%,27.830505%);fill-opacity:1;" d="M 634.613281 145.742188 L 636.039063 149.375 L 631.230469 154.117188 Z M 634.613281 145.742188 "/>
<path style=" stroke:none;fill-rule:evenodd;fill:rgb(16.868591%,23.925781%,49.804688%);fill-opacity:1;" d="M 54.34375 13.441406 C 54.34375 9.75 55.367188 6.878906 57.425781 4.824219 C 59.484375 2.765625 62.347656 1.742188 66.019531 1.742188 C 69.785156 1.742188 72.683594 2.75 74.71875 4.765625 C 76.757813 6.789063 77.773438 9.621094 77.773438 13.253906 C 77.773438 15.898438 77.332031 18.0625 76.441406 19.75 C 75.550781 21.4375 74.261719 22.753906 72.582031 23.695313 C 70.898438 24.640625 68.804688 25.109375 66.292969 25.109375 C 63.746094 25.109375 61.636719 24.703125 59.964844 23.890625 C 58.296875 23.078125 56.9375 21.792969 55.898438 20.035156 C 54.863281 18.28125 54.34375 16.082031 54.34375 13.441406 Z M 61.320313 13.457031 C 61.320313 15.734375 61.746094 17.375 62.59375 18.371094 C 63.445313 19.367188 64.605469 19.867188 66.066406 19.867188 C 67.566406 19.867188 68.734375 19.375 69.558594 18.402344 C 70.382813 17.425781 70.792969 15.675781 70.792969 13.144531 C 70.792969 11.019531 70.363281 9.464844 69.503906 8.488281 C 68.640625 7.503906 67.476563 7.015625 66.003906 7.015625 C 64.59375 7.015625 63.457031 7.515625 62.605469 8.507813 C 61.746094 9.503906 61.320313 11.15625 61.320313 13.457031 Z M 105.691406 2.121094 L 112.992188 2.121094 L 118.085938 18.390625 L 123.105469 2.121094 L 130.195313 2.121094 L 121.800781 24.730469 L 114.234375 24.730469 Z M 160.195313 2.121094 L 178.886719 2.121094 L 178.886719 6.949219 L 167.203125 6.949219 L 167.203125 10.550781 L 178.035156 10.550781 L 178.035156 15.160156 L 167.203125 15.160156 L 167.203125 19.613281 L 179.234375 19.613281 L 179.234375 24.730469 L 160.195313 24.730469 Z M 160.195313 2.121094 "/>
<path style=" stroke:none;fill-rule:evenodd;fill:rgb(16.868591%,23.925781%,49.804688%);fill-opacity:1;" d="M 409.527344 2.074219 L 419.914063 2.074219 C 421.953125 2.074219 423.613281 2.351563 424.871094 2.90625 C 426.128906 3.464844 427.171875 4.257813 427.996094 5.292969 C 428.816406 6.335938 429.410156 7.542969 429.78125 8.921875 C 430.152344 10.300781 430.339844 11.757813 430.339844 13.300781 C 430.339844 15.714844 430.066406 17.589844 429.511719 18.921875 C 428.964844 20.25 428.203125 21.367188 427.222656 22.265625 C 426.242188 23.167969 425.195313 23.765625 424.074219 24.066406 C 422.542969 24.476563 421.15625 24.683594 419.914063 24.683594 L 409.527344 24.683594 Z M 416.507813 7.1875 L 416.507813 19.535156 L 418.222656 19.535156 C 419.6875 19.535156 420.726563 19.371094 421.347656 19.050781 C 421.964844 18.726563 422.449219 18.160156 422.800781 17.355469 C 423.15625 16.546875 423.328125 15.242188 423.328125 13.429688 C 423.328125 11.035156 422.9375 9.398438 422.15625 8.515625 C 421.371094 7.632813 420.070313 7.1875 418.253906 7.1875 Z M 460.839844 13.394531 C 460.839844 9.703125 461.867188 6.832031 463.925781 4.777344 C 465.984375 2.722656 468.847656 1.695313 472.519531 1.695313 C 476.28125 1.695313 479.183594 2.707031 481.21875 4.722656 C 483.253906 6.742188 484.273438 9.574219 484.273438 13.210938 C 484.273438 15.851563 483.828125 18.015625 482.941406 19.703125 C 482.050781 21.394531 480.761719 22.710938 479.082031 23.652344 C 477.398438 24.59375 475.304688 25.0625 472.792969 25.0625 C 470.246094 25.0625 468.136719 24.65625 466.460938 23.847656 C 464.792969 23.03125 463.4375 21.746094 462.398438 19.988281 C 461.363281 18.234375 460.839844 16.035156 460.839844 13.394531 Z M 467.820313 13.410156 C 467.820313 15.6875 468.246094 17.332031 469.09375 18.324219 C 469.945313 19.320313 471.105469 19.820313 472.566406 19.820313 C 474.066406 19.820313 475.234375 19.332031 476.054688 18.355469 C 476.882813 17.378906 477.292969 15.628906 477.292969 13.097656 C 477.292969 10.972656 476.863281 9.421875 476.003906 8.441406 C 475.140625 7.457031 473.976563 6.96875 472.503906 6.96875 C 471.09375 6.96875 469.957031 7.46875 469.105469 8.460938 C 468.246094 9.457031 467.820313 11.109375 467.820313 13.410156 Z M 467.820313 13.410156 "/>
<path style=" stroke:none;fill-rule:evenodd;fill:rgb(16.868591%,23.925781%,49.804688%);fill-opacity:1;" d="M 262.339844 2.191406 L 268.859375 2.191406 L 277.339844 14.675781 L 277.339844 2.191406 L 283.9375 2.191406 L 283.9375 24.800781 L 277.339844 24.800781 L 268.90625 12.386719 L 268.90625 24.800781 L 262.339844 24.800781 Z M 315.425781 13.511719 C 315.425781 9.824219 316.453125 6.949219 318.507813 4.898438 C 320.566406 2.839844 323.429688 1.8125 327.105469 1.8125 C 330.867188 1.8125 333.765625 2.824219 335.804688 4.839844 C 337.839844 6.859375 338.855469 9.691406 338.855469 13.328125 C 338.855469 15.96875 338.414063 18.132813 337.523438 19.820313 C 336.632813 21.511719 335.34375 22.828125 333.667969 23.769531 C 331.980469 24.710938 329.886719 25.179688 327.378906 25.179688 C 324.828125 25.179688 322.71875 24.773438 321.046875 23.964844 C 319.378906 23.148438 318.019531 21.863281 316.984375 20.105469 C 315.945313 18.351563 315.425781 16.152344 315.425781 13.511719 Z M 322.402344 13.527344 C 322.402344 15.804688 322.832031 17.449219 323.675781 18.441406 C 324.53125 19.4375 325.6875 19.9375 327.152344 19.9375 C 328.652344 19.9375 329.820313 19.449219 330.640625 18.472656 C 331.464844 17.496094 331.875 15.75 331.875 13.21875 C 331.875 11.089844 331.445313 9.539063 330.585938 8.558594 C 329.722656 7.574219 328.5625 7.085938 327.085938 7.085938 C 325.675781 7.085938 324.539063 7.585938 323.6875 8.582031 C 322.832031 9.574219 322.402344 11.226563 322.402344 13.527344 Z M 322.402344 13.527344 "/>
<path style=" stroke:none;fill-rule:evenodd;fill:rgb(16.868591%,23.925781%,49.804688%);fill-opacity:1;" d="M 553.183594 2.140625 L 571.875 2.140625 L 571.875 6.972656 L 560.191406 6.972656 L 560.191406 10.570313 L 571.023438 10.570313 L 571.023438 15.183594 L 560.191406 15.183594 L 560.191406 19.632813 L 572.222656 19.632813 L 572.222656 24.75 L 553.183594 24.75 Z M 553.183594 2.140625 "/>
<path style=" stroke:none;fill-rule:evenodd;fill:rgb(16.868591%,23.925781%,49.804688%);fill-opacity:1;" d="M 651.296875 2.140625 L 672.546875 2.140625 L 672.546875 7.730469 L 665.410156 7.730469 L 665.410156 24.75 L 658.433594 24.75 L 658.433594 7.730469 L 651.296875 7.730469 Z M 715.175781 21.023438 L 707.261719 21.023438 L 706.125 24.75 L 698.996094 24.75 L 707.503906 2.140625 L 715.152344 2.140625 L 723.625 24.75 L 716.308594 24.75 Z M 713.699219 16.128906 L 711.230469 8.003906 L 708.75 16.128906 Z M 753.652344 2.140625 L 764.039063 2.140625 C 766.078125 2.140625 767.738281 2.421875 768.996094 2.972656 C 770.253906 3.53125 771.296875 4.328125 772.121094 5.363281 C 772.941406 6.40625 773.535156 7.609375 773.90625 8.988281 C 774.277344 10.367188 774.464844 11.824219 774.464844 13.367188 C 774.464844 15.785156 774.191406 17.65625 773.636719 18.988281 C 773.089844 20.320313 772.328125 21.4375 771.347656 22.335938 C 770.367188 23.234375 769.320313 23.835938 768.199219 24.136719 C 766.667969 24.546875 765.28125 24.75 764.039063 24.75 L 753.652344 24.75 Z M 760.632813 7.257813 L 760.632813 19.605469 L 762.347656 19.605469 C 763.8125 19.605469 764.851563 19.441406 765.472656 19.121094 C 766.089844 18.792969 766.574219 18.230469 766.925781 17.425781 C 767.28125 16.613281 767.453125 15.308594 767.453125 13.5 C 767.453125 11.105469 767.0625 9.46875 766.28125 8.582031 C 765.496094 7.699219 764.195313 7.257813 762.378906 7.257813 Z M 804.964844 13.460938 C 804.964844 9.773438 805.992188 6.898438 808.050781 4.847656 C 810.109375 2.789063 812.972656 1.761719 816.644531 1.761719 C 820.40625 1.761719 823.308594 2.773438 825.34375 4.789063 C 827.382813 6.808594 828.398438 9.640625 828.398438 13.277344 C 828.398438 15.921875 827.953125 18.082031 827.066406 19.773438 C 826.175781 21.460938 824.886719 22.777344 823.207031 23.71875 C 821.523438 24.660156 819.429688 25.128906 816.917969 25.128906 C 814.371094 25.128906 812.261719 24.726563 810.585938 23.914063 C 808.917969 23.097656 807.5625 21.816406 806.523438 20.058594 C 805.488281 18.304688 804.964844 16.105469 804.964844 13.460938 Z M 811.945313 13.476563 C 811.945313 15.757813 812.371094 17.398438 813.21875 18.394531 C 814.070313 19.386719 815.230469 19.886719 816.691406 19.886719 C 818.191406 19.886719 819.359375 19.398438 820.179688 18.425781 C 821.007813 17.445313 821.417969 15.699219 821.417969 13.167969 C 821.417969 11.042969 820.988281 9.488281 820.128906 8.511719 C 819.265625 7.527344 818.101563 7.035156 816.628906 7.035156 C 815.21875 7.035156 814.082031 7.535156 813.230469 8.53125 C 812.371094 9.527344 811.945313 11.179688 811.945313 13.476563 Z M 811.945313 13.476563 "/>
<path style=" stroke:none;fill-rule:evenodd;fill:rgb(16.868591%,23.925781%,49.804688%);fill-opacity:1;" d="M 210.765625 1.929688 L 210.734375 24.75 L 217.195313 24.753906 L 217.15625 17.679688 L 219.449219 17.679688 L 224.417969 24.753906 L 231.226563 24.75 L 225.914063 16.972656 C 229.558594 15.148438 230.46875 13.371094 230.378906 9.539063 C 230.332031 4.15625 226.777344 2.007813 221.800781 1.988281 Z M 210.765625 1.929688 "/>
<path style=" stroke:none;fill-rule:evenodd;fill:rgb(100%,100%,100%);fill-opacity:1;" d="M 217.167969 8.089844 L 217.167969 12.964844 C 222.09375 13.109375 224.382813 12.8125 224.367188 10.292969 C 224.355469 8.074219 221.996094 8.050781 217.167969 8.089844 Z M 217.167969 8.089844 "/>
<path style=" stroke:none;fill-rule:evenodd;fill:rgb(16.868591%,23.925781%,49.804688%);fill-opacity:1;" d="M 602.511719 21.0625 L 605.757813 16.953125 C 609.929688 19.695313 615.351563 20.644531 615.597656 18.242188 C 615.941406 14.863281 603.222656 17.109375 603.53125 8.347656 C 603.523438 4.390625 607.542969 1.652344 612.347656 1.671875 C 615.871094 1.714844 618.628906 2.988281 621.328125 4.632813 L 618.269531 8.980469 C 614.496094 6.808594 610.414063 6.070313 609.9375 7.789063 C 609.027344 11.628906 622.644531 9.632813 621.921875 17.585938 C 621.441406 22.917969 618.8125 24.371094 612.875 24.691406 C 609.054688 24.894531 605.691406 23.429688 602.511719 21.0625 Z M 602.511719 21.0625 "/>
<path style=" stroke:none;fill-rule:evenodd;fill:rgb(16.868591%,23.925781%,49.804688%);fill-opacity:1;" d="M 21.40625 5.25 L 17.820313 9.601563 C 13.710938 5.984375 7.035156 7.257813 6.824219 13.378906 C 6.621094 19.1875 12.390625 21.101563 16.433594 18.78125 L 16.433594 16.390625 L 12.035156 16.308594 L 12.035156 11.609375 L 22.257813 11.609375 L 22.257813 21.746094 C 15.085938 27.667969 0.859375 26.25 0.414063 13.378906 C 1.476563 0.121094 16.203125 -0.0351563 21.40625 5.25 Z M 21.40625 5.25 "/>
<path style=" stroke:none;fill-rule:evenodd;fill:rgb(16.868591%,23.925781%,49.804688%);fill-opacity:1;" d="M 313.082031 331.015625 L 316.449219 326.746094 C 320.769531 329.597656 326.390625 330.582031 326.640625 328.085938 C 326.996094 324.570313 313.820313 326.90625 314.140625 317.792969 C 314.128906 313.679688 318.296875 310.832031 323.277344 310.851563 C 326.925781 310.898438 329.78125 312.21875 332.578125 313.929688 L 329.410156 318.449219 C 325.5 316.191406 321.273438 315.425781 320.777344 317.214844 C 319.835938 321.207031 333.945313 319.128906 333.195313 327.402344 C 332.695313 332.949219 329.972656 334.457031 323.820313 334.789063 C 319.863281 335.003906 316.378906 333.480469 313.082031 331.015625 Z M 313.082031 331.015625 "/>
<path style=" stroke:none;fill-rule:evenodd;fill:rgb(16.868591%,23.925781%,49.804688%);fill-opacity:1;" d="M 364.191406 310.984375 L 364.160156 334.371094 L 370.621094 334.371094 L 370.585938 327.125 L 372.875 327.125 L 377.84375 334.371094 L 384.652344 334.367188 L 379.339844 326.402344 C 382.984375 324.53125 383.894531 322.710938 383.808594 318.785156 C 383.757813 313.269531 380.203125 311.070313 375.226563 311.046875 Z M 364.191406 310.984375 "/>
<path style=" stroke:none;fill-rule:evenodd;fill:rgb(100%,100%,100%);fill-opacity:1;" d="M 370.59375 317.296875 L 370.59375 322.296875 C 375.519531 322.445313 377.808594 322.136719 377.792969 319.554688 C 377.78125 317.28125 375.421875 317.261719 370.59375 317.296875 Z M 370.59375 317.296875 "/>
<path style=" stroke:none;fill-rule:evenodd;fill:rgb(16.868591%,23.925781%,49.804688%);fill-opacity:1;" d="M 26.355469 310.761719 L 26.324219 334.375 L 32.78125 334.378906 L 32.746094 327.058594 L 35.039063 327.058594 L 40.007813 334.375 L 46.8125 334.375 L 41.503906 326.328125 C 45.144531 324.441406 46.058594 322.601563 45.96875 318.636719 C 45.921875 313.070313 42.363281 310.847656 37.386719 310.824219 Z M 26.355469 310.761719 "/>
<path style=" stroke:none;fill-rule:evenodd;fill:rgb(100%,100%,100%);fill-opacity:1;" d="M 32.757813 317.136719 L 32.757813 322.183594 C 37.679688 322.332031 39.96875 322.023438 39.957031 319.417969 C 39.945313 317.121094 37.582031 317.097656 32.757813 317.136719 Z M 32.757813 317.136719 "/>
<path style=" stroke:none;fill-rule:evenodd;fill:rgb(16.868591%,23.925781%,49.804688%);fill-opacity:1;" d="M 67.003906 330.53125 L 59.085938 330.53125 L 57.949219 334.386719 L 50.820313 334.386719 L 59.328125 310.996094 L 66.976563 310.996094 L 75.449219 334.386719 L 68.132813 334.386719 Z M 65.523438 325.46875 L 63.054688 317.0625 L 60.578125 325.46875 Z M 80.527344 310.996094 L 93.613281 310.996094 C 95.792969 310.996094 97.464844 311.554688 98.636719 312.671875 C 99.804688 313.789063 100.386719 315.171875 100.386719 316.820313 C 100.386719 318.203125 99.972656 319.390625 99.136719 320.375 C 98.582031 321.039063 97.765625 321.558594 96.699219 321.945313 C 98.324219 322.347656 99.515625 323.039063 100.28125 324.023438 C 101.046875 325.011719 101.429688 326.246094 101.429688 327.734375 C 101.429688 328.945313 101.15625 330.035156 100.613281 331.003906 C 100.066406 331.972656 99.320313 332.738281 98.378906 333.304688 C 97.789063 333.652344 96.902344 333.90625 95.71875 334.066406 C 94.144531 334.277344 93.105469 334.386719 92.589844 334.386719 L 80.527344 334.386719 Z M 87.566406 320.175781 L 90.613281 320.175781 C 91.703125 320.175781 92.46875 319.980469 92.894531 319.59375 C 93.320313 319.199219 93.535156 318.640625 93.535156 317.90625 C 93.535156 317.222656 93.320313 316.691406 92.894531 316.308594 C 92.46875 315.921875 91.71875 315.730469 90.660156 315.730469 L 87.566406 315.730469 Z M 87.566406 329.355469 L 91.128906 329.355469 C 92.335938 329.355469 93.183594 329.132813 93.675781 328.691406 C 94.171875 328.25 94.417969 327.664063 94.417969 326.917969 C 94.417969 326.222656 94.175781 325.667969 93.6875 325.25 C 93.199219 324.832031 92.339844 324.617188 91.113281 324.617188 L 87.566406 324.617188 Z M 121.261719 330.53125 L 113.347656 330.53125 L 112.210938 334.386719 L 105.078125 334.386719 L 113.589844 310.996094 L 121.238281 310.996094 L 129.710938 334.386719 L 122.394531 334.386719 Z M 119.785156 325.46875 L 117.316406 317.0625 L 114.835938 325.46875 Z M 134.753906 310.996094 L 141.734375 310.996094 L 141.734375 328.636719 L 152.660156 328.636719 L 152.660156 334.386719 L 134.753906 334.386719 Z M 158.6875 310.996094 L 165.667969 310.996094 L 165.667969 319.164063 L 173.308594 319.164063 L 173.308594 310.996094 L 180.316406 310.996094 L 180.316406 334.386719 L 173.308594 334.386719 L 173.308594 324.914063 L 165.667969 324.914063 L 165.667969 334.386719 L 158.6875 334.386719 Z M 201.710938 330.53125 L 193.792969 330.53125 L 192.65625 334.386719 L 185.527344 334.386719 L 194.035156 310.996094 L 201.683594 310.996094 L 210.15625 334.386719 L 202.839844 334.386719 Z M 200.230469 325.46875 L 197.761719 317.0625 L 195.285156 325.46875 Z M 215.265625 310.996094 L 221.785156 310.996094 L 230.261719 323.910156 L 230.261719 310.996094 L 236.863281 310.996094 L 236.863281 334.386719 L 230.261719 334.386719 L 221.832031 321.542969 L 221.832031 334.386719 L 215.265625 334.386719 Z M 244.4375 310.996094 L 254.824219 310.996094 C 256.863281 310.996094 258.523438 311.285156 259.78125 311.855469 C 261.039063 312.433594 262.082031 313.253906 262.90625 314.328125 C 263.726563 315.40625 264.320313 316.652344 264.691406 318.078125 C 265.0625 319.503906 265.25 321.015625 265.25 322.609375 C 265.25 325.109375 264.976563 327.046875 264.421875 328.425781 C 263.875 329.800781 263.113281 330.957031 262.132813 331.886719 C 261.152344 332.820313 260.105469 333.4375 258.984375 333.75 C 257.453125 334.175781 256.066406 334.386719 254.824219 334.386719 L 244.4375 334.386719 Z M 251.417969 316.289063 L 251.417969 329.0625 L 253.132813 329.0625 C 254.597656 329.0625 255.636719 328.894531 256.257813 328.5625 C 256.875 328.222656 257.359375 327.640625 257.710938 326.808594 C 258.066406 325.96875 258.238281 324.617188 258.238281 322.746094 C 258.238281 320.269531 257.847656 318.574219 257.066406 317.660156 C 256.28125 316.746094 254.980469 316.289063 253.164063 316.289063 Z M 270.863281 322.707031 C 270.863281 318.890625 271.886719 315.917969 273.945313 313.792969 C 276.003906 311.664063 278.867188 310.601563 282.539063 310.601563 C 286.304688 310.601563 289.203125 311.648438 291.238281 313.734375 C 293.277344 315.824219 294.292969 318.753906 294.292969 322.515625 C 294.292969 325.25 293.851563 327.488281 292.960938 329.234375 C 292.070313 330.984375 290.78125 332.34375 289.101563 333.320313 C 287.417969 334.292969 285.324219 334.777344 282.8125 334.777344 C 280.265625 334.777344 278.15625 334.359375 276.480469 333.519531 C 274.8125 332.675781 273.457031 331.347656 272.417969 329.53125 C 271.382813 327.714844 270.863281 325.441406 270.863281 322.707031 Z M 277.839844 322.722656 C 277.839844 325.082031 278.265625 326.78125 279.113281 327.808594 C 279.964844 328.839844 281.125 329.355469 282.585938 329.355469 C 284.085938 329.355469 285.253906 328.847656 286.078125 327.84375 C 286.902344 326.828125 287.3125 325.019531 287.3125 322.402344 C 287.3125 320.203125 286.882813 318.597656 286.023438 317.582031 C 285.160156 316.566406 283.996094 316.058594 282.523438 316.058594 C 281.113281 316.058594 279.976563 316.574219 279.125 317.605469 C 278.265625 318.632813 277.839844 320.34375 277.839844 322.722656 Z M 277.839844 322.722656 "/>
<path style=" stroke:none;fill-rule:evenodd;fill:rgb(16.868591%,23.925781%,49.804688%);fill-opacity:1;" d="M 0.0195313 311 L 21.269531 311 L 21.269531 316.78125 L 14.136719 316.78125 L 14.136719 334.390625 L 7.15625 334.390625 L 7.15625 316.78125 L 0.0195313 316.78125 Z M 0.0195313 311 "/>
<path style=" stroke:none;fill-rule:evenodd;fill:rgb(16.868591%,23.925781%,49.804688%);fill-opacity:1;" d="M 510.324219 314.1875 L 506.734375 318.617188 C 502.625 314.9375 495.953125 316.230469 495.738281 322.460938 C 495.535156 328.375 501.304688 330.324219 505.347656 327.964844 L 505.347656 325.53125 L 500.949219 325.445313 L 500.949219 320.660156 L 511.171875 320.660156 L 511.171875 330.980469 C 504 337.011719 489.773438 335.5625 489.332031 322.460938 C 490.390625 308.964844 505.117188 308.808594 510.324219 314.1875 Z M 510.324219 314.1875 "/>
<path style=" stroke:none;fill-rule:evenodd;fill:rgb(16.868591%,23.925781%,49.804688%);fill-opacity:1;" d="M 733.183594 314.578125 L 729.59375 319.007813 C 725.484375 315.328125 718.8125 316.625 718.597656 322.855469 C 718.394531 328.765625 724.164063 330.714844 728.210938 328.355469 L 728.210938 325.921875 L 723.808594 325.839844 L 723.808594 321.054688 L 734.03125 321.054688 L 734.03125 331.375 C 726.859375 337.402344 712.632813 335.957031 712.191406 322.855469 C 713.25 309.359375 727.976563 309.199219 733.183594 314.578125 Z M 733.183594 314.578125 "/>
<path style=" stroke:none;fill-rule:evenodd;fill:rgb(16.868591%,23.925781%,49.804688%);fill-opacity:1;" d="M 654.476563 314.863281 L 650.332031 318.761719 C 646.222656 315.082031 639.308594 316.375 639.332031 322.609375 C 639.367188 330.222656 646.957031 330.203125 650.355469 326.550781 L 654.914063 329.832031 C 647.449219 337.683594 632.898438 335.652344 632.925781 322.609375 C 633.984375 309.109375 649.214844 308.71875 654.476563 314.863281 Z M 654.476563 314.863281 "/>
<path style=" stroke:none;fill-rule:evenodd;fill:rgb(16.868591%,23.925781%,49.804688%);fill-opacity:1;" d="M 660.308594 311.035156 L 667.285156 311.035156 L 667.285156 319.191406 L 674.929688 319.191406 L 674.929688 311.035156 L 681.9375 311.035156 L 681.9375 334.390625 L 674.929688 334.390625 L 674.929688 324.929688 L 667.285156 324.929688 L 667.285156 334.390625 L 660.308594 334.390625 Z M 689.042969 311.035156 L 707.738281 311.035156 L 707.738281 316.027344 L 696.054688 316.027344 L 696.054688 319.746094 L 706.882813 319.746094 L 706.882813 324.507813 L 696.054688 324.507813 L 696.054688 329.105469 L 708.085938 329.105469 L 708.085938 334.390625 L 689.042969 334.390625 Z M 689.042969 311.035156 "/>
<path style=" stroke:none;fill-rule:evenodd;fill:rgb(16.868591%,23.925781%,49.804688%);fill-opacity:1;" d="M 755.097656 330.542969 L 747.183594 330.542969 L 746.046875 334.390625 L 738.914063 334.390625 L 747.425781 311.035156 L 755.074219 311.035156 L 763.546875 334.390625 L 756.230469 334.390625 Z M 753.621094 325.484375 L 751.152344 317.089844 L 748.671875 325.484375 Z M 753.621094 325.484375 "/>
<path style=" stroke:none;fill-rule:evenodd;fill:rgb(16.868591%,23.925781%,49.804688%);fill-opacity:1;" d="M 339.472656 311.222656 L 358.167969 311.222656 L 358.167969 316.171875 L 346.484375 316.171875 L 346.484375 319.863281 L 357.316406 319.863281 L 357.316406 324.585938 L 346.484375 324.585938 L 346.484375 329.148438 L 358.515625 329.148438 L 358.515625 334.386719 L 339.472656 334.386719 Z M 348.410156 305.109375 L 353.808594 305.109375 L 348.820313 309.832031 L 345.820313 309.832031 Z M 348.410156 305.109375 "/>
<path style=" stroke:none;fill-rule:evenodd;fill:rgb(16.868591%,23.925781%,49.804688%);fill-opacity:1;" d="M 390.417969 311.25 L 397.425781 311.25 L 397.425781 334.414063 L 390.417969 334.414063 Z M 404 322.847656 C 404 319.070313 405.027344 316.125 407.085938 314.023438 C 409.144531 311.914063 412.003906 310.863281 415.679688 310.863281 C 419.441406 310.863281 422.339844 311.898438 424.378906 313.960938 C 426.414063 316.03125 427.429688 318.933594 427.429688 322.660156 C 427.429688 325.367188 426.988281 327.582031 426.097656 329.316406 C 425.210938 331.046875 423.921875 332.394531 422.242188 333.359375 C 420.558594 334.324219 418.460938 334.804688 415.953125 334.804688 C 413.40625 334.804688 411.296875 334.390625 409.621094 333.558594 C 407.953125 332.722656 406.59375 331.40625 405.558594 329.605469 C 404.523438 327.808594 404 325.554688 404 322.847656 Z M 410.980469 322.863281 C 410.980469 325.199219 411.40625 326.882813 412.253906 327.902344 C 413.105469 328.921875 414.261719 329.433594 415.726563 329.433594 C 417.226563 329.433594 418.394531 328.933594 419.214844 327.933594 C 420.042969 326.929688 420.453125 325.140625 420.453125 322.546875 C 420.453125 320.367188 420.019531 318.777344 419.164063 317.773438 C 418.300781 316.765625 417.136719 316.265625 415.664063 316.265625 C 414.253906 316.265625 413.117188 316.777344 412.261719 317.796875 C 411.40625 318.816406 410.980469 320.507813 410.980469 322.863281 Z M 410.980469 322.863281 "/>
<path style=" stroke:none;fill-rule:evenodd;fill:rgb(16.868591%,23.925781%,49.804688%);fill-opacity:1;" d="M 461.527344 330.5625 L 453.613281 330.5625 L 452.476563 334.414063 L 445.347656 334.414063 L 453.855469 311.058594 L 461.503906 311.058594 L 469.976563 334.414063 L 462.660156 334.414063 Z M 460.050781 325.507813 L 457.582031 317.113281 L 455.101563 325.507813 Z M 460.050781 325.507813 "/>
<path style=" stroke:none;fill-rule:evenodd;fill:rgb(16.868591%,23.925781%,49.804688%);fill-opacity:1;" d="M 517.703125 311.027344 L 536.394531 311.027344 L 536.394531 316.019531 L 524.710938 316.019531 L 524.710938 319.738281 L 535.542969 319.738281 L 535.542969 324.5 L 524.710938 324.5 L 524.710938 329.097656 L 536.742188 329.097656 L 536.742188 334.382813 L 517.703125 334.382813 Z M 543.03125 311.027344 L 549.554688 311.027344 L 558.03125 323.921875 L 558.03125 311.027344 L 564.632813 311.027344 L 564.632813 334.382813 L 558.03125 334.382813 L 549.601563 321.558594 L 549.601563 334.382813 L 543.03125 334.382813 Z M 570.15625 311.027344 L 591.410156 311.027344 L 591.410156 316.800781 L 584.273438 316.800781 L 584.273438 334.382813 L 577.292969 334.382813 L 577.292969 316.800781 L 570.15625 316.800781 Z M 597.003906 311.027344 L 615.695313 311.027344 L 615.695313 316.019531 L 604.011719 316.019531 L 604.011719 319.738281 L 614.84375 319.738281 L 614.84375 324.5 L 604.011719 324.5 L 604.011719 329.097656 L 616.042969 329.097656 L 616.042969 334.382813 L 597.003906 334.382813 Z M 597.003906 311.027344 "/>
<path style=" stroke:none;fill-rule:evenodd;fill:rgb(16.868591%,23.925781%,49.804688%);fill-opacity:1;" d="M 783.613281 311.035156 L 790.59375 311.035156 L 790.59375 328.648438 L 801.519531 328.648438 L 801.519531 334.390625 L 783.613281 334.390625 Z M 821.046875 330.542969 L 813.132813 330.542969 L 811.996094 334.390625 L 804.867188 334.390625 L 813.375 311.035156 L 821.023438 311.035156 L 829.496094 334.390625 L 822.179688 334.390625 Z M 819.570313 325.484375 L 817.101563 317.089844 L 814.621094 325.484375 Z M 816.960938 304.871094 L 822.359375 304.871094 L 817.371094 309.632813 L 814.371094 309.632813 Z M 816.960938 304.871094 "/>
</g>
</svg>
